<svg width="16" height="17" viewBox="0 0 16 17" fill="none" xmlns="http://www.w3.org/2000/svg">
<g opacity="0.5">
<path fill-rule="evenodd" clip-rule="evenodd" d="M8 1.5C4.13438 1.5 1 4.63438 1 8.5C1 12.3656 4.13438 15.5 8 15.5C11.8656 15.5 15 12.3656 15 8.5C15 4.63438 11.8656 1.5 8 1.5ZM8 12.5625C7.65469 12.5625 7.375 12.2828 7.375 11.9375C7.375 11.5922 7.65469 11.3125 8 11.3125C8.34531 11.3125 8.625 11.5922 8.625 11.9375C8.625 12.2828 8.34531 12.5625 8 12.5625ZM8.98281 9.13281C8.69375 9.24375 8.5 9.525 8.5 9.83281V10.1875C8.5 10.2563 8.44375 10.3125 8.375 10.3125H7.625C7.55625 10.3125 7.5 10.2563 7.5 10.1875V9.85156C7.5 9.49062 7.60469 9.13438 7.81094 8.8375C8.0125 8.54688 8.29375 8.325 8.625 8.19844C9.15625 7.99375 9.5 7.54844 9.5 7.0625C9.5 6.37344 8.82656 5.8125 8 5.8125C7.17344 5.8125 6.5 6.37344 6.5 7.0625V7.18125C6.5 7.25 6.44375 7.30625 6.375 7.30625H5.625C5.55625 7.30625 5.5 7.25 5.5 7.18125V7.0625C5.5 6.44844 5.76875 5.875 6.25625 5.44844C6.725 5.0375 7.34375 4.8125 8 4.8125C8.65625 4.8125 9.275 5.03906 9.74375 5.44844C10.2312 5.875 10.5 6.44844 10.5 7.0625C10.5 7.96562 9.90469 8.77812 8.98281 9.13281Z" fill="#F5F1E9" style="fill:#F5F1E9;fill:color(display-p3 0.9608 0.9451 0.9137);fill-opacity:1;"/>
</g>
</svg>
