<svg width="12" height="13" viewBox="0 0 12 13" fill="none" xmlns="http://www.w3.org/2000/svg">
<path d="M2.4 12.5C1.07452 12.5 0 11.4255 0 10.1V2.90001C0 1.57453 1.07452 0.500006 2.4 0.500006H4C4.28654 0.498915 4.55178 0.651153 4.69537 0.899124C4.83896 1.14709 4.83896 1.45292 4.69537 1.70089C4.55178 1.94886 4.28654 2.1011 4 2.10001H2.4C1.95817 2.10001 1.6 2.45818 1.6 2.90001V10.1C1.6 10.5418 1.95817 10.9 2.4 10.9H9.6C10.0418 10.9 10.4 10.5418 10.4 10.1V8.5C10.4017 8.05936 10.7594 7.70305 11.2 7.70305C11.6406 7.70305 11.9983 8.05936 12 8.5V10.1C12 11.4255 10.9255 12.5 9.6 12.5H2.4ZM3.4344 9.068C3.28394 8.91792 3.19937 8.71413 3.19937 8.5016C3.19937 8.28908 3.28394 8.08529 3.4344 7.9352L9.2688 2.104H7.2C6.75937 2.10232 6.40306 1.74464 6.40306 1.30401C6.40306 0.863371 6.75937 0.505694 7.2 0.504008H11.2C11.6418 0.504008 12 0.862181 12 1.30401V5.304C11.9983 5.74463 11.6406 6.10094 11.2 6.10094C10.7594 6.10094 10.4017 5.74463 10.4 5.304V3.23362L4.56559 9.07362C4.25193 9.38286 3.74806 9.38286 3.4344 9.07362V9.068Z" fill="white" style="fill:white;fill-opacity:1;"/>
</svg>
