<svg width="115" height="22" viewBox="0 0 115 22" fill="none" xmlns="http://www.w3.org/2000/svg">
<path fill-rule="evenodd" clip-rule="evenodd" d="M0.227051 0H7.56075L8.29398 8.79893L8.29412 8.79883L8.29406 8.79993L8.29412 8.80067L8.29402 8.80065L7.56075 21.9998H0.227051V14.6659L8.2921 8.8003L0.227051 7.33389V0ZM78.7169 6.60156C79.593 6.60156 80.3639 6.74911 81.0298 7.0442C81.8095 7.40005 82.3571 7.99457 82.6725 8.82777C82.9178 9.4787 83.0404 10.2425 83.0404 11.1191C83.0404 12.0043 82.8915 12.7724 82.5936 13.4234C82.2169 14.1958 81.6387 14.7383 80.8589 15.0507C80.2807 15.2764 79.6149 15.3892 78.8614 15.3892C77.8714 15.3892 77.0128 15.207 76.2857 14.8424C75.6724 14.5387 75.2037 14.0613 74.8795 13.4104C74.5554 12.7594 74.3933 11.9696 74.3933 11.041C74.3933 9.38323 74.8095 8.20287 75.6418 7.49986C76.3426 6.90967 77.3677 6.61024 78.7169 6.60156ZM78.73 8.05966C77.8714 8.05966 77.2582 8.33739 76.8902 8.89286C76.5923 9.32682 76.4434 10.0255 76.4434 10.9889C76.4434 12.0043 76.6274 12.7507 76.9953 13.2281C77.3633 13.6968 77.9459 13.9311 78.7431 13.9311C79.5141 13.9311 80.0814 13.6924 80.445 13.2151C80.8086 12.7377 80.9903 12 80.9903 11.0019C80.9903 10.0906 80.8414 9.39625 80.5435 8.9189C80.2019 8.35475 79.5973 8.06834 78.73 8.05966ZM33.3336 6.65332L36.2116 10.9495L33.2285 15.3368H35.4494L37.3418 12.3555L39.2736 15.3368H41.4682L38.4983 10.9495L41.4682 6.65332H39.2079L37.3418 9.51744L35.6203 6.65332H33.3336ZM46.9627 6.65332L43.3357 15.3368H45.5172L46.3714 13.3319H49.6962L50.5504 15.3368H52.7319L49.1048 6.65332H46.9627ZM46.7919 11.7827L48.0403 8.74934L49.2888 11.7827H46.7919ZM62.0988 13.7876V15.3368H59.0369C58.4586 15.3368 58.0162 15.3064 57.7096 15.2457C56.632 15.0374 55.8654 14.4429 55.4098 13.4621C55.1119 12.8025 54.963 11.9867 54.963 11.0146C54.963 9.85159 55.1908 8.90556 55.6464 8.17651C55.9793 7.64708 56.4239 7.26086 56.9802 7.01785C57.5366 6.77483 58.2528 6.65332 59.1289 6.65332H62.0988V8.20255H59.3391C58.5068 8.20255 57.8979 8.42387 57.5125 8.86651C57.1883 9.23103 57.0262 9.89065 57.0262 10.8454C57.0262 12.1299 57.2759 12.9718 57.7753 13.371C58.1257 13.6487 58.6733 13.7876 59.418 13.7876H62.0988ZM71.8141 15.3368V13.7876H69.1332C68.3885 13.7876 67.8409 13.6487 67.4905 13.371C66.9911 12.9718 66.7414 12.1299 66.7414 10.8454C66.7414 9.89065 66.9035 9.23103 67.2277 8.86651C67.6132 8.42387 68.222 8.20255 69.0543 8.20255H71.8141V6.65332H68.8441C67.968 6.65332 67.2518 6.77483 66.6954 7.01785C66.1391 7.26086 65.6945 7.64708 65.3616 8.17651C64.906 8.90556 64.6782 9.85159 64.6782 11.0146C64.6782 11.9867 64.8272 12.8025 65.125 13.4621C65.5806 14.4429 66.3472 15.0374 67.4248 15.2457C67.7314 15.3064 68.1739 15.3368 68.7521 15.3368H71.8141ZM87.8539 11.8608V6.65332H86.001V11.8999C86.001 12.5855 86.0623 13.1171 86.185 13.4947C86.3076 13.8722 86.531 14.2129 86.8552 14.5166C87.4772 15.1068 88.4672 15.4019 89.8251 15.4019C91.0955 15.4019 92.0767 15.1025 92.7688 14.5036C93.0667 14.2346 93.2879 13.8809 93.4325 13.4426C93.577 13.0043 93.6493 12.4467 93.6493 11.7697V6.65332H91.7832V11.8608C91.7832 12.4857 91.7219 12.9197 91.5993 13.1627C91.4766 13.4057 91.2598 13.5988 90.9487 13.742C90.6377 13.8852 90.272 13.9568 89.8514 13.9568C89.1944 13.9568 88.6818 13.7789 88.3139 13.4231C88.1474 13.2582 88.0291 13.0607 87.9591 12.8307C87.889 12.6007 87.8539 12.2774 87.8539 11.8608ZM98.882 8.97066V15.3368H97.0947V6.65332H99.4865L102.969 13.1236V6.65332H104.743V15.3368H102.456L98.882 8.97066ZM107.444 8.20255H110.23V15.3368H112.096V8.20255H115V6.65332H107.444V8.20255ZM14.8967 0H22.2304V7.33389L8.30008 8.80028L22.2307 14.6659V21.9998H14.897L8.29749 8.80055L8.29639 8.80067L8.29708 8.79974L8.29663 8.79883L8.29749 8.79919L14.8967 0Z" fill="#F5F1E9" style="fill:#F5F1E9;fill:color(display-p3 0.9608 0.9451 0.9137);fill-opacity:1;"/>
</svg>
