<?xml version="1.0" encoding="UTF-8"?>
<svg width="313px" height="60px" viewBox="0 0 313 60" version="1.1" xmlns="http://www.w3.org/2000/svg" xmlns:xlink="http://www.w3.org/1999/xlink">
    <title>XAccount White Text</title>
    <g id="页面-1" stroke="none" stroke-width="1" fill="none" fill-rule="evenodd">
        <g id="XAccount-White-Text" transform="translate(0, 0)" fill="#FFFFFF">
            <g id="XAccount" transform="translate(90, 18)" fill-rule="nonzero">
                <polygon id="路径" points="8.13537258 11.8579882 0.286709166 0.142011834 6.52263352 0.142011834 11.2174961 7.95266272 16.3065838 0.142011834 22.4708309 0.142011834 14.3712969 11.8579882 22.4708309 23.8224852 16.485777 23.8224852 11.2174961 15.6923077 6.05673113 23.8224852 0 23.8224852"></polygon>
                <path d="M27.5718648,23.8224852 L37.463331,0.142011834 L43.3050303,0.142011834 L53.1964965,23.8224852 L47.2472813,23.8224852 L44.9177693,18.3550296 L35.850592,18.3550296 L33.52108,23.8224852 L27.5718648,23.8224852 Z M40.4021,5.85798817 L36.9974286,14.1301775 L43.8067713,14.1301775 L40.4021,5.85798817 Z" id="形状"></path>
                <path d="M78.7255585,19.5976331 L78.7255585,23.8224852 L70.375154,23.8224852 C68.7982536,23.8224852 67.5916859,23.739645 66.7554508,23.5739645 C63.8166818,23.0059172 61.7260942,21.3846154 60.4836878,18.7100592 C59.6713452,16.9112426 59.2651738,14.6863905 59.2651738,12.035503 C59.2651738,8.86390533 59.886377,6.28402367 61.1287834,4.29585799 C62.0366958,2.85207101 63.2492366,1.79881657 64.766406,1.13609467 C66.2835753,0.473372781 68.2367815,0.142011834 70.6260245,0.142011834 L78.7255585,0.142011834 L78.7255585,4.36686391 L71.1994429,4.36686391 C68.929662,4.36686391 67.2691381,4.9704142 66.2178711,6.17751479 C65.3338512,7.17159763 64.8918412,8.9704142 64.8918412,11.5739645 C64.8918412,15.0769231 65.5727755,17.3727811 66.934644,18.4615385 C67.8903412,19.2189349 69.3836181,19.5976331 71.4144747,19.5976331 L78.7255585,19.5976331 Z" id="路径"></path>
                <path d="M105.222264,19.5976331 L105.222264,23.8224852 L96.8718594,23.8224852 C95.294959,23.8224852 94.0883913,23.739645 93.2521562,23.5739645 C90.3133873,23.0059172 88.2227996,21.3846154 86.9803932,18.7100592 C86.1680506,16.9112426 85.7618793,14.6863905 85.7618793,12.035503 C85.7618793,8.86390533 86.3830824,6.28402367 87.6254888,4.29585799 C88.5334012,2.85207101 89.745942,1.79881657 91.2631114,1.13609467 C92.7802807,0.473372781 94.7334869,0.142011834 97.12273,0.142011834 L105.222264,0.142011834 L105.222264,4.36686391 L97.6961483,4.36686391 C95.4263674,4.36686391 93.7658435,4.9704142 92.7145765,6.17751479 C91.8305566,7.17159763 91.3885466,8.9704142 91.3885466,11.5739645 C91.3885466,15.0769231 92.0694809,17.3727811 93.4313494,18.4615385 C94.3870467,19.2189349 95.8803236,19.5976331 97.9111802,19.5976331 L105.222264,19.5976331 Z" id="路径"></path>
                <path d="M124.049499,0 C126.438742,0 128.541276,0.402366864 130.357101,1.20710059 C132.483527,2.17751479 133.976804,3.79881657 134.836931,6.07100592 C135.50592,7.84615385 135.840414,9.92899408 135.840414,12.3195266 C135.840414,14.7337278 135.434242,16.8284024 134.6219,18.6035503 C133.594525,20.7100592 132.017625,22.1893491 129.891198,23.0414201 C128.314298,23.6568047 126.498473,23.964497 124.443724,23.964497 C121.74388,23.964497 119.402421,23.4674556 117.41935,22.4733728 C115.74688,21.6449704 114.468634,20.3431953 113.584615,18.5680473 C112.700595,16.7928994 112.258585,14.6390533 112.258585,12.1065089 C112.258585,7.58579882 113.393475,4.36686391 115.663256,2.44970414 C117.57465,0.840236686 120.370065,0.0236686391 124.049499,0 Z M124.085338,3.97633136 C121.74388,3.97633136 120.071409,4.73372781 119.067927,6.24852071 C118.255585,7.43195266 117.849413,9.33727811 117.849413,11.964497 C117.849413,14.7337278 118.351154,16.7692308 119.354637,18.0710059 C120.358119,19.3491124 121.946965,19.9881657 124.121176,19.9881657 C126.22371,19.9881657 127.770745,19.3372781 128.762281,18.035503 C129.753817,16.7337278 130.249585,14.7218935 130.249585,12 C130.249585,9.5147929 129.843414,7.62130178 129.031071,6.31952663 C128.099266,4.78106509 126.450688,4 124.085338,3.97633136 Z" id="形状"></path>
                <path d="M148.969304,0.142011834 L148.969304,14.3431953 C148.969304,15.4792899 149.064874,16.3609467 149.256013,16.9881657 C149.447153,17.6153846 149.769701,18.1538462 150.223657,18.6035503 C151.227139,19.5739645 152.624846,20.0591716 154.416778,20.0591716 C155.563615,20.0591716 156.561124,19.8639053 157.409305,19.4733728 C158.257486,19.0828402 158.848824,18.556213 159.183318,17.8934911 C159.517812,17.2307692 159.685059,16.0473373 159.685059,14.3431953 L159.685059,0.142011834 L164.774147,0.142011834 L164.774147,14.0946746 C164.774147,15.9408284 164.577034,17.4615385 164.182809,18.6568047 C163.788584,19.852071 163.1853,20.816568 162.372958,21.5502959 C160.485456,23.183432 157.809503,24 154.345101,24 C150.641774,24 147.94193,23.1952663 146.245567,21.5857988 C145.361547,20.7573964 144.75229,19.8284024 144.417796,18.7988166 C144.083302,17.7692308 143.916055,16.3195266 143.916055,14.4497041 L143.916055,0.142011834 L148.969304,0.142011834 Z" id="路径"></path>
                <polygon id="路径" points="179.049874 6.46153846 179.049874 23.8224852 174.175818 23.8224852 174.175818 0.142011834 180.698452 0.142011834 190.195693 17.7869822 190.195693 0.142011834 195.03391 0.142011834 195.03391 23.8224852 188.797986 23.8224852"></polygon>
                <polygon id="路径" points="209.990572 4.36686391 202.392779 4.36686391 202.392779 0.142011834 223 0.142011834 223 4.36686391 215.079659 4.36686391 215.079659 23.8224852 209.990572 23.8224852"></polygon>
            </g>
            <g id="编组">
                <polygon id="矩形备份-22" points="0 0 20 0 22 24 0 20"></polygon>
                <polygon id="矩形备份-23" points="0 40 22 24 20 60 0 60"></polygon>
                <polygon id="矩形备份-24" points="40 0 60 0 60 20 22 24"></polygon>
                <polygon id="矩形备份-25" points="22 24 60 40 60 60 40 60"></polygon>
            </g>
        </g>
    </g>
</svg>