<svg width="20" height="16" viewBox="0 0 20 16" fill="none" xmlns="http://www.w3.org/2000/svg">
<path d="M9.99955 1.5068C6.17738 1.5068 3.49649 3.23687 3.49649 3.23687C4.96557 1.85296 7.53244 1.05539 7.53244 1.05539L7.29015 0.799805C4.88005 0.844908 2.69799 2.60506 2.69799 2.60506C0.245139 8.00577 0.401916 12.6694 0.401916 12.6694C2.39869 15.3925 5.36499 15.1967 5.36499 15.1967L6.37763 13.8429C4.595 13.4366 3.46834 11.767 3.46834 11.767C3.46834 11.767 6.14959 13.6925 9.9999 13.6925C13.8502 13.6925 16.5315 11.767 16.5315 11.767C16.5315 11.767 15.4048 13.4369 13.6222 13.8429L14.6348 15.1967C14.6348 15.1967 17.6011 15.3922 19.5979 12.6694C19.5979 12.6694 19.7547 8.00577 17.3018 2.60506C17.3018 2.60506 15.1198 0.844908 12.7097 0.799805L12.4674 1.05539C12.4674 1.05539 15.0346 1.85259 16.5033 3.23687C16.5033 3.23687 13.8214 1.5068 9.99955 1.5068ZM7.04821 7.20858C7.97534 7.20858 8.73108 8.06591 8.71682 9.11907C8.71682 10.1572 7.97534 11.0296 7.04821 11.0296C6.12109 11.0296 5.39385 10.1572 5.39385 9.11907C5.39385 8.08095 6.12109 7.20858 7.04821 7.20858ZM12.9951 7.20858C13.9222 7.20858 14.6637 8.06591 14.6637 9.11907C14.6637 10.1722 13.9222 11.0296 12.9951 11.0296C12.0679 11.0296 11.3407 10.1572 11.3407 9.11907C11.3407 8.08095 12.0679 7.20858 12.9951 7.20858Z" fill="#F5F1E9" style="fill:#F5F1E9;fill:color(display-p3 0.9608 0.9451 0.9137);fill-opacity:1;"/>
</svg>
