<svg width="14" height="16" viewBox="0 0 14 16" fill="none" xmlns="http://www.w3.org/2000/svg">
<path d="M10.1969 15.9952C10.1896 15.9339 10.1864 15.8721 10.1876 15.8103C10.1775 15.7913 10.1712 15.7703 10.169 15.7484V13.0938C10.169 12.2576 9.8994 11.5438 9.36026 10.9538C10.8019 10.6791 11.8802 10.0931 12.5945 9.19443C13.3088 8.29572 13.6666 7.20804 13.6666 5.93203C13.6666 4.73828 13.3156 3.70225 12.6132 2.82463C12.8641 1.94631 12.82 1.02041 12.4821 0.0462534C12.1305 0.0190464 11.7485 0.0843266 11.3349 0.242032C10.9212 0.399738 10.6143 0.547256 10.4131 0.683888C10.2131 0.821219 10.0311 0.951759 9.86834 1.07547C9.141 0.855897 8.32916 0.745772 7.43349 0.745772C6.53654 0.745772 5.73156 0.855897 5.01663 1.07547C4.87875 0.965362 4.7185 0.845709 4.53713 0.71517C4.35511 0.58465 4.03896 0.426945 3.5874 0.242032C3.13645 0.0564406 2.729 -0.0224225 2.365 0.00546356C2.01406 0.993228 1.97679 1.93271 2.25257 2.82461C1.56312 3.70293 1.21839 4.73828 1.21839 5.93201C1.21839 7.20802 1.56932 8.29232 2.27122 9.18355C2.9731 10.0755 4.05139 10.6655 5.50546 10.9538C5.13322 11.3448 4.87221 11.8453 4.75389 12.395C3.68802 12.6825 2.94203 12.4765 2.51593 11.7763C1.72585 10.5146 1.01775 10.0619 0.391031 10.4188C0.302841 10.5146 0.315872 10.6139 0.428301 10.7172C0.54135 10.8199 0.710285 10.9572 0.936384 11.1285C1.16184 11.3005 1.33082 11.4888 1.44385 11.6948C1.45628 11.722 1.49104 11.8219 1.54759 11.9932C1.60159 12.1587 1.65791 12.3232 1.71654 12.4867C1.77245 12.6444 1.87927 12.8199 2.03642 13.0115C2.19294 13.2039 2.37494 13.3651 2.58179 13.4956C2.78863 13.6254 3.07372 13.722 3.43708 13.7838C3.80045 13.845 4.21412 13.8484 4.67811 13.794V15.862C4.67811 15.8824 4.675 15.9164 4.6688 15.9653C4.66259 16.0129 10.1969 15.9952 10.1969 15.9952Z" fill="#F5F1E9" style="fill:#F5F1E9;fill:color(display-p3 0.9608 0.9451 0.9137);fill-opacity:1;"/>
</svg>
